<svg width="16" height="18" viewBox="0 0 16 18" fill="none" xmlns="http://www.w3.org/2000/svg">
<path d="M13.52 6.0251H2.48002C2.00002 6.0251 1.60002 6.40167 1.68002 6.85356L2.96002 16.7197C3.04002 17.4728 3.76002 18 4.56002 18H11.36C12.16 18 12.88 17.4728 12.96 16.7197L14.24 6.85356C14.32 6.40167 14 6.0251 13.52 6.0251Z" fill="#BF343F"/>
<path d="M14.4 1.50628H10.4C10.4 0.677824 9.68 0 8.8 0H7.2C6.32 0 5.6 0.677824 5.6 1.50628H1.6C0.72 1.50628 0 2.1841 0 3.01255V3.76569C0 4.21757 0.32 4.51883 0.8 4.51883H15.2C15.68 4.51883 16 4.21757 16 3.76569V3.01255C16 2.1841 15.28 1.50628 14.4 1.50628Z" fill="#BF343F"/>
</svg>
