<svg width="18" height="18" viewBox="0 0 18 18" fill="none" xmlns="http://www.w3.org/2000/svg">
<path d="M16.8832 4.39036C16.5011 3.75873 16.0298 3.14018 15.453 2.56664C14.8696 1.98736 14.2405 1.51282 13.5965 1.13155L14.7273 0C14.7273 0 16.3636 0 17.1818 0.818182C18 1.63636 18 3.27273 18 3.27273L16.8832 4.39036ZM7.36364 13.9091H4.09091V10.6364L4.48364 10.2436C5.14882 10.5586 5.80991 11.0013 6.40473 11.5953C7.00036 12.1917 7.44218 12.8512 7.75636 13.5164L7.36364 13.9091ZM15.9382 5.33455L8.70055 12.5714C8.31845 11.9405 7.84718 11.3204 7.27036 10.7476C6.68782 10.1675 6.05782 9.69382 5.41391 9.31255L12.6655 2.06182C13.3306 2.37518 13.9917 2.81782 14.5865 3.41264C15.183 4.00827 15.6248 4.66936 15.9382 5.33455ZM2.45455 2.45455V15.5455H15.5455V9.81818L18 7.33255V16.3636C18 17.2677 17.2669 18 16.3636 18H1.63636C0.733091 18 0 17.2677 0 16.3636V1.63636C0 0.733091 0.733091 0 1.63636 0H10.6445L8.18918 2.45455H2.45455Z" fill="#418FBF"/>
</svg>
