<svg width="25" height="25" viewBox="0 0 25 25" fill="none" xmlns="http://www.w3.org/2000/svg">
<path d="M18.2327 0H6.76727C3.03574 0 0 3.03574 0 6.76727V18.2329C0 21.9643 3.03574 25 6.76727 25H18.2329C21.9643 25 25 21.9643 25 18.2329V6.76727C25 3.03574 21.9643 0 18.2327 0ZM12.5 19.3357C8.7307 19.3357 5.66425 16.2693 5.66425 12.5C5.66425 8.7307 8.7307 5.66425 12.5 5.66425C16.2693 5.66425 19.3357 8.7307 19.3357 12.5C19.3357 16.2693 16.2693 19.3357 12.5 19.3357ZM19.4992 7.27634C18.3853 7.27634 17.4793 6.37035 17.4793 5.25646C17.4793 4.14257 18.3853 3.23639 19.4992 3.23639C20.6131 3.23639 21.5193 4.14257 21.5193 5.25646C21.5193 6.37035 20.6131 7.27634 19.4992 7.27634Z" fill="#545759"/>
<path d="M12.5 7.12986C9.53903 7.12986 7.12986 9.53884 7.12986 12.5C7.12986 15.461 9.53903 17.8701 12.5 17.8701C15.4612 17.8701 17.8701 15.461 17.8701 12.5C17.8701 9.53884 15.4612 7.12986 12.5 7.12986Z" fill="#545759"/>
<path d="M19.4992 4.70219C19.1936 4.70219 18.9449 4.9509 18.9449 5.25646C18.9449 5.56202 19.1936 5.81074 19.4992 5.81074C19.805 5.81074 20.0537 5.56221 20.0537 5.25646C20.0537 4.95071 19.805 4.70219 19.4992 4.70219Z" fill="#545759"/>
</svg>
