<svg width="31" height="25" viewBox="0 0 31 25" fill="none" xmlns="http://www.w3.org/2000/svg">
<path d="M11.5651 25C10.2245 25 8.84474 24.893 7.45667 24.6786C5.01187 24.3006 2.53704 23.0405 1.83673 22.6632L0 21.6737L1.98857 21.0294C4.16233 20.3251 5.48465 19.8881 7.12154 19.2039C5.48252 18.4218 4.21933 17.0149 3.61126 15.1962L3.14865 13.8124L3.52801 13.8695C3.16828 13.5122 2.88423 13.1496 2.66404 12.8198C1.88096 11.6478 1.46636 10.2158 1.55458 8.98856L1.64161 7.78068L2.3755 8.0608C2.06591 7.48471 1.84217 6.86947 1.71067 6.22463C1.3902 4.65203 1.6584 2.98133 2.46608 1.52036L3.10537 0.363984L3.96035 1.37587C6.66436 4.57653 10.0893 6.47515 14.1541 7.03097C13.9881 5.90326 14.1125 4.81493 14.5243 3.8394C15.0037 2.70353 15.8565 1.74035 16.9899 1.0538C18.2486 0.291506 19.775 -0.077872 21.288 0.0137153C22.8932 0.110896 24.3505 0.703532 25.508 1.7287C26.0733 1.58398 26.4898 1.42947 27.0527 1.22066C27.3913 1.09505 27.7754 0.952425 28.256 0.789293L30.027 0.188034L28.8721 3.4381C28.9483 3.4318 29.0268 3.42644 29.1089 3.42295L31 3.33859L29.8823 4.84383C29.8182 4.93006 29.8018 4.95453 29.7791 4.98832C29.689 5.12209 29.5769 5.28848 28.0427 7.30713C27.6586 7.81261 27.4668 8.47096 27.5025 9.16125C27.6385 11.7844 27.3119 14.1578 26.5312 16.2151C25.7928 18.1615 24.6485 19.8315 23.1306 21.1787C21.2523 22.8455 18.8571 23.9867 16.0115 24.5703C14.6156 24.8564 13.1166 25 11.5651 25Z" fill="#545759"/>
</svg>
