<svg width="35" height="25" viewBox="0 0 35 25" fill="none" xmlns="http://www.w3.org/2000/svg">
<path d="M34.2789 3.9119C33.8756 2.38223 32.6934 1.1764 31.1941 0.76451C28.4553 0 17.4996 0 17.4996 0C17.4996 0 6.54435 0 3.80549 0.735525C2.33512 1.14698 1.12409 2.38245 0.720766 3.9119C0 6.70581 0 12.5 0 12.5C0 12.5 0 18.3234 0.720766 21.0881C1.12451 22.6176 2.30628 23.8234 3.8057 24.2353C6.57319 25 17.5 25 17.5 25C17.5 25 28.4553 25 31.1941 24.2645C32.6936 23.8528 33.8756 22.647 34.2793 21.1175C34.9999 18.3234 34.9999 12.5294 34.9999 12.5294C34.9999 12.5294 35.0287 6.70581 34.2789 3.9119ZM14.0116 17.8529V7.14712L23.1217 12.5L14.0116 17.8529Z" fill="#545759"/>
</svg>
