<svg width="53" height="56" viewBox="0 0 53 56" fill="none" xmlns="http://www.w3.org/2000/svg">
<path d="M28.6248 12.0717C28.5529 10.7358 27.1812 10.963 25.8428 10.963C26.8314 11.2251 27.7667 11.5898 28.6248 12.0717Z" fill="#F3F3F3"/>
<path d="M14.317 8.72371C9.12113 8.72371 6.72955 15.2694 10.8832 18.5616C12.2991 14.7985 15.1179 12.0965 18.8131 11.03C17.8023 9.63906 16.1691 8.72371 14.317 8.72371Z" fill="#F3F3F3"/>
<path d="M3.58299 17.5372C3.79473 18.2135 4.06908 18.8623 4.395 19.4769L2.68822 21.1767C2.22987 21.6329 2.22987 22.3733 2.68822 22.8305L5.69666 25.8257C5.91576 26.0438 6.21595 26.1665 6.52883 26.1665C6.83827 26.1665 7.13645 26.0438 7.35934 25.8257L9.06423 24.126C9.32008 24.2608 9.60367 24.3434 9.86865 24.4596C9.86865 24.4403 9.86676 24.4202 9.86676 24.4008C9.86676 23.0118 10.027 21.7015 10.3124 20.4711C8.25399 19.1526 6.88048 16.8638 6.88048 14.2506C6.88048 10.1687 10.2166 6.84723 14.3169 6.84723C17.0933 6.84723 19.4905 8.38563 20.7701 10.6332C22.1362 10.4646 23.4195 10.4646 24.9642 10.7551C24.7655 10.1569 24.5317 9.57132 24.2389 9.02249L25.9457 7.32195C26.1683 7.10294 26.2916 6.8051 26.2916 6.49546C26.2916 6.1857 26.1683 5.88798 25.9457 5.66897L22.9389 2.67559C22.7089 2.44655 22.4087 2.33291 22.1086 2.33291C21.8084 2.33291 21.5083 2.44655 21.28 2.67559L19.5678 4.37613C18.9492 4.04997 18.2993 3.77691 17.6182 3.57076V1.16823C17.6182 0.523224 17.0952 0 16.4453 0H12.1904C11.5441 0 11.0156 0.523224 11.0156 1.16823V3.57065C10.3363 3.7768 9.68619 4.04985 9.06577 4.37601L7.35934 2.67736C7.1291 2.44832 6.82903 2.33468 6.52883 2.33468C6.22876 2.33468 5.92691 2.44832 5.69856 2.67642L2.68822 5.6698C2.46912 5.88975 2.34582 6.18653 2.34582 6.49723C2.34582 6.80782 2.46912 7.10471 2.68822 7.32372L4.395 9.02332C4.06896 9.63906 3.79473 10.2869 3.58678 10.963H1.17481C0.524863 10.963 0 11.4871 0 12.133V16.368C0 17.0121 0.524863 17.5372 1.17481 17.5372H3.58299Z" fill="#F3F3F3"/>
<path d="M40.4412 40.1981C42.323 39.1709 43.6154 37.2048 43.6154 34.923C43.6154 31.5934 40.8925 28.8851 37.5471 28.8851C36.3706 28.8851 35.2805 29.2351 34.3489 29.8141C33.7911 32.0241 32.9128 34.138 31.764 35.9741C35.0208 36.5835 38.0091 38.0596 40.4412 40.1981Z" fill="#F3F3F3"/>
<path d="M52.998 32.6382C52.998 31.9409 52.429 31.3763 51.7312 31.3763H49.128C48.9032 30.646 48.605 29.946 48.2515 29.2818L50.0943 27.4476C50.3338 27.2111 50.4663 26.8905 50.4663 26.5561C50.4663 26.2215 50.3337 25.9008 50.0943 25.6636L46.8502 22.4337C46.6036 22.1871 46.2777 22.0635 45.9538 22.0635C45.6296 22.0635 45.3056 22.1871 45.059 22.4337L43.2123 24.2689C42.5457 23.917 41.8443 23.6222 41.1078 23.3994V20.8083C41.1078 20.1119 40.5425 19.5474 39.8429 19.5474H35.2529C34.9454 19.5474 34.6747 19.6701 34.454 19.8516C34.8405 21.2553 35.0522 22.7773 35.0522 24.4009C35.0522 25.4316 34.9714 26.4782 34.8203 27.5188C35.6745 27.2054 36.584 27.0086 37.5471 27.0086C41.9326 27.0086 45.5008 30.5592 45.5008 34.923C45.5008 37.7123 44.0371 40.1568 41.8406 41.567C43.4388 43.3115 44.7091 45.3813 45.5359 47.7003C45.672 47.747 45.8138 47.781 45.9555 47.781C46.2796 47.781 46.6037 47.6583 46.8522 47.4116L50.0983 44.1818C50.3359 43.9453 50.4665 43.6247 50.4665 43.2903C50.4665 42.9558 50.3359 42.6352 50.0983 42.3978L48.2516 40.5626C48.6051 39.8993 48.9033 39.1991 49.1281 38.4681H51.7313C52.0663 38.4681 52.3923 38.3362 52.628 38.0978C52.8656 37.8623 53 37.5408 53 37.2063L52.998 32.6382Z" fill="#F3F3F3"/>
<path d="M42.9508 48.8421C40.9824 43.0779 35.7814 39.1133 29.7773 38.5737C27.7667 40.6928 25.2775 42.0372 22.4585 42.0372C19.6416 42.0372 17.1504 40.6929 15.1418 38.5737C9.13417 39.1133 3.93285 43.0779 1.96452 48.843L0.876501 52.0306C0.565283 52.9479 0.714312 53.9585 1.2815 54.7455C1.84857 55.5327 2.76183 56 3.7339 56H41.1813C42.1552 56 43.0685 55.5327 43.6357 54.7455C44.2009 53.9585 44.3519 52.9479 44.0388 52.0306L42.9508 48.8421Z" fill="#F3F3F3"/>
<path d="M12.6949 24.4009C12.6949 31.5505 17.0677 39.2224 22.4585 39.2224C27.8514 39.2224 32.224 31.5505 32.224 24.4009C32.2241 9.58042 12.6949 9.55104 12.6949 24.4009Z" fill="#F3F3F3"/>
</svg>
