<svg width="60" height="57" viewBox="0 0 60 57" fill="none" xmlns="http://www.w3.org/2000/svg">
<path d="M59.7207 46.2061L49.6996 28.5728C49.4298 28.0982 48.7551 28.1149 48.5009 28.5982C45.5951 34.1237 40.5109 37.9754 34.6609 39.3189C34.2127 39.4219 33.993 39.9388 34.2227 40.3431L43.0969 55.9576C43.973 57.4991 46.2188 57.2848 46.8072 55.6193L49.5597 47.8287L57.5773 49.3013C59.2939 49.6163 60.5934 47.7417 59.7207 46.2061Z" fill="#F3F3F3"/>
<path d="M25.339 39.3191C19.4871 37.9749 14.4036 34.1212 11.4991 28.5983C11.2449 28.1149 10.5702 28.0983 10.3004 28.5728L0.279119 46.2061C-0.592872 47.7404 0.704743 49.6165 2.42236 49.3013L10.44 47.8287L13.1925 55.6193C13.7809 57.2842 16.0265 57.4995 16.9027 55.9576L25.777 40.3431C26.0069 39.9387 25.7873 39.4219 25.339 39.3191Z" fill="#F3F3F3"/>
<path d="M46.9711 25.3524C49.1949 19.6466 48.4906 13.203 45.0871 8.11564C37.8474 -2.70652 22.1513 -2.70355 14.9141 8.11457C11.51 13.203 10.8051 19.6468 13.0287 25.3524C19.1187 40.975 40.91 40.9019 46.9711 25.3524ZM40.0301 18.0635L36.5044 21.5546L37.3367 26.4842C37.6261 28.1988 35.8482 29.4793 34.3578 28.6828L29.9999 26.3555L25.642 28.683C24.139 29.4857 22.3758 28.1857 22.6631 26.4843L23.4953 21.5547L19.9696 18.0636C18.7537 16.8594 19.426 14.7544 21.1074 14.5063L25.9797 13.787L28.1586 9.30194C28.9101 7.75481 31.0887 7.75398 31.8407 9.30194L34.0196 13.787L38.8919 14.5063C40.5727 14.7542 41.2467 16.8587 40.0301 18.0635Z" fill="#F3F3F3"/>
</svg>
