<svg width="18" height="18" viewBox="0 0 18 18" fill="none" xmlns="http://www.w3.org/2000/svg">
<path d="M17.8921 2.0634C17.2014 1.36915 16.5568 0.590411 15.7559 0.0192133C15.0212 -0.133229 14.6686 0.660204 14.1635 1.03121C15.0157 2.02116 16.0094 2.8954 16.9259 3.8321C17.341 3.33804 18.3255 2.83112 17.8921 2.0634ZM17.4365 5.80282C16.8543 6.38687 16.2519 6.95623 15.6898 7.56233C15.6751 9.90406 15.6953 12.2458 15.6825 14.5893C15.6714 15.4526 14.9147 16.2185 14.0515 16.2478C10.4992 16.2625 6.94333 16.2625 3.3911 16.2497C2.43233 16.224 1.66458 15.3056 1.73989 14.3634C1.73805 10.973 1.73805 7.58437 1.73989 4.19759C1.66642 3.25906 2.43784 2.35543 3.38559 2.32237C5.73844 2.29115 8.09312 2.32421 10.4441 2.30584C11.0539 1.75485 11.6178 1.15059 12.2019 0.570208C9.06842 0.570208 5.93864 0.553678 2.80519 0.579391C1.34315 0.605104 0.031731 1.88341 0.00601686 3.35273C0.00234341 7.3052 -0.00867695 11.2558 0.0133638 15.2083C0.0188739 16.6317 1.22744 17.8659 2.62886 18H14.9386C16.2666 17.7667 17.4053 16.6078 17.4219 15.2285C17.4623 12.0878 17.431 8.94349 17.4365 5.80282ZM16.498 4.26554C15.5759 3.33804 14.6466 2.41604 13.7135 1.49772C11.6711 3.52538 9.62495 5.54752 7.59353 7.58621C8.51373 8.51188 9.4376 9.43387 10.3725 10.3467C12.4168 8.3227 14.4592 6.2932 16.498 4.26554ZM6.08374 11.8399C7.33455 11.5001 8.00128 11.2852 9.25209 10.9491C9.58638 10.8426 9.80862 10.7783 9.98127 10.7103C9.09597 9.86732 8.07843 8.82778 7.19496 7.97741C6.82211 9.2649 6.45476 10.5524 6.08374 11.8399Z" fill="#545759"/>
</svg>
