<svg width="57" height="57" viewBox="0 0 57 57" fill="none" xmlns="http://www.w3.org/2000/svg">
<path d="M52.0568 1.86673H24.6486C23.9654 1.86673 23.4117 2.4197 23.4117 3.10191V12.7263L24.7835 11.8758C25.1325 11.6592 25.5053 11.5132 25.8854 11.4329V4.3371H50.8198V22.1513H25.8855V19.2691L23.4117 20.8029V23.3866C23.4117 24.0689 23.9654 24.6218 24.6486 24.6218H52.0568C52.7398 24.6218 53.2937 24.0689 53.2937 23.3866V3.10191C53.2937 2.4197 52.7398 1.86673 52.0568 1.86673Z" fill="#F3F3F3"/>
<path d="M34.074 8.72318C33.7486 8.31105 33.1504 8.24058 32.7378 8.56532L28.4773 11.92C28.8841 12.1855 29.241 12.5412 29.5142 12.9806C29.5917 13.1049 29.6589 13.2329 29.7187 13.3626L33.9161 10.0576C34.3288 9.73271 34.3994 9.13521 34.074 8.72318Z" fill="#F3F3F3"/>
<path d="M13.5095 7.11052C15.4758 7.11052 17.0697 5.51877 17.0697 3.55526C17.0697 1.59174 15.4758 0 13.5095 0C11.5433 0 9.94939 1.59174 9.94939 3.55526C9.94939 5.51877 11.5433 7.11052 13.5095 7.11052Z" fill="#F3F3F3"/>
<path d="M28.0551 13.8857C27.5546 13.0809 26.4958 12.8335 25.6897 13.3332L22.2108 15.4901C22.1963 12.6091 22.204 14.1381 22.1947 12.2827C22.1835 10.0556 20.36 8.24358 18.1297 8.24358H16.4397C14.9959 11.9829 15.461 10.5948 14.2355 13.7688L14.7509 11.5276C14.7866 11.3598 14.7607 11.1848 14.6779 11.0345L13.9796 9.76611L14.5993 8.64069C14.6917 8.47281 14.5698 8.26708 14.378 8.26708H12.6756C12.4838 8.26708 12.3617 8.47281 12.4543 8.64069L13.0752 9.76844L12.3756 11.0391C12.2944 11.1867 12.2679 11.3581 12.3006 11.5231L12.7471 13.7688C12.5064 13.1455 10.8426 8.83629 10.6137 8.24358H8.88954C6.65936 8.24358 4.83575 10.0554 4.82449 12.2827L4.76106 24.885C4.75637 25.8324 5.52147 26.6042 6.47017 26.609C6.47318 26.609 6.47597 26.609 6.47898 26.609C7.42356 26.609 8.19178 25.8466 8.19646 24.9023L8.25989 12.2999C8.25989 12.2979 8.25989 12.2959 8.25989 12.294C8.26257 12.107 8.41586 11.9572 8.60315 11.9586C8.79043 11.9599 8.94138 12.112 8.94138 12.299L8.94216 30.1539C10.5147 30.0871 11.9718 30.6536 13.0648 31.6483V24.6827H13.9548V32.6731C14.5817 33.5935 14.9485 34.704 14.9485 35.8987C14.9485 36.9871 14.644 38.0059 14.1159 38.8746C14.6584 38.8771 15.1852 38.9491 15.6877 39.0818C16.365 38.4949 17.1798 38.063 18.0775 37.842C18.0775 6.74344 18.0401 25.9714 18.0401 12.3014C18.0401 12.1033 18.2006 11.9428 18.3989 11.9425C18.5972 11.942 18.7583 12.1019 18.7592 12.2999C18.7652 13.5031 18.7842 17.264 18.7907 18.5734C18.7939 19.1945 19.133 19.7655 19.6774 20.0659C20.2207 20.3659 20.8853 20.3503 21.4146 20.0221L27.5019 16.2477C28.3077 15.7482 28.5555 14.6905 28.0551 13.8857Z" fill="#F3F3F3"/>
<path d="M47.8108 39.7033C49.892 39.7033 51.5791 38.0184 51.5791 35.9401C51.5791 33.8617 49.892 32.1769 47.8108 32.1769C45.7295 32.1769 44.0424 33.8617 44.0424 35.9401C44.0424 38.0184 45.7295 39.7033 47.8108 39.7033Z" fill="#F3F3F3"/>
<path d="M56.9787 45.1781C56.9668 42.8206 55.0366 40.9026 52.6758 40.9026C51.6572 40.9026 44.1382 40.9026 43.2243 40.9026C43.6297 41.6895 43.8602 42.5802 43.8602 43.5244C43.8602 44.5269 43.592 45.5743 43.0241 46.506C45.1315 46.5911 46.9781 47.7206 48.0573 49.3891H52.5811V45.2221C52.5811 45.017 52.7439 44.8489 52.9491 44.8419C53.1543 44.8349 53.3284 44.9916 53.3422 45.1961L53.3634 49.3891H57L56.9787 45.1781Z" fill="#F3F3F3"/>
<path d="M32.3425 43.5243C32.3425 42.5637 32.5808 41.6581 32.9995 40.8614C30.546 40.8614 27.665 40.8614 24.6087 40.8614C24.9958 41.6339 25.2148 42.5041 25.2148 43.4251C25.2148 44.5074 24.9105 45.5321 24.3822 46.401C26.1166 46.4093 27.7168 47.1289 28.873 48.3233C29.9938 47.2299 31.5216 46.5517 33.2024 46.5427C32.6188 45.6017 32.3425 44.5452 32.3425 43.5243Z" fill="#F3F3F3"/>
<path d="M29.483 32.1353C27.4019 32.1353 25.7145 33.8199 25.7145 35.8985C25.7145 37.9724 27.3987 39.6618 29.483 39.6618C31.5474 39.6618 33.2514 37.9957 33.2514 35.8985C33.2514 33.8223 31.5675 32.1353 29.483 32.1353Z" fill="#F3F3F3"/>
<path d="M13.697 43.4251C13.697 42.5065 13.9151 41.638 14.3003 40.8668C14.1378 40.8588 14.8211 40.8614 4.32436 40.8614C1.97567 40.8614 0.0333329 42.7693 0.0214044 45.1368L0 49.3891C1.66185 49.3891 1.99618 49.3891 3.63663 49.3891L3.65792 45.1552C3.65904 44.9454 3.82971 44.7764 4.03952 44.777C4.24933 44.7777 4.419 44.9475 4.419 45.1571V49.3891H9.51671C10.6154 47.6352 12.5044 46.534 14.5605 46.4494C14.0024 45.5518 13.697 44.5161 13.697 43.4251Z" fill="#F3F3F3"/>
<path d="M9.18974 32.1353C7.10861 32.1353 5.42134 33.8202 5.42134 35.8985C5.42134 37.9675 7.09869 39.6618 9.18974 39.6618C11.2562 39.6618 12.9583 37.9902 12.9583 35.8985C12.9583 33.8201 11.271 32.1353 9.18974 32.1353Z" fill="#F3F3F3"/>
<path d="M47.0651 52.7479C47.0534 50.3902 45.1231 48.4723 42.7623 48.4723C42.5119 48.4723 33.5128 48.4723 33.2299 48.4723C30.8692 48.4723 28.8151 50.3901 28.8032 52.7477L28.7725 52.6485C28.7608 50.3004 26.8393 48.3731 24.4697 48.3731C21.7335 48.3731 17.8037 48.3731 14.9373 48.3731C12.5765 48.3731 10.5225 50.2909 10.5106 52.6485L10.4892 56.9999H14.1258L14.1471 52.6668C14.148 52.4862 14.295 52.3406 14.4757 52.341C14.6564 52.3415 14.8026 52.488 14.8026 52.6685V57C16.9342 57 22.4372 57 24.4337 57V52.6685C24.4337 52.4752 24.5903 52.3184 24.7838 52.3179C24.9773 52.3174 25.1349 52.4734 25.1359 52.6667L25.1572 56.9999C25.9007 56.9999 31.6496 56.9999 32.4184 56.9999L32.4397 52.766C32.4407 52.5855 32.5877 52.4398 32.7685 52.4402C32.9492 52.4407 33.0952 52.5872 33.0952 52.7677V56.9999C35.2268 56.9999 40.7298 56.9999 42.7263 56.9999V52.7677C42.7263 52.5744 42.8829 52.4176 43.0765 52.4171C43.2699 52.4166 43.4275 52.5726 43.4285 52.7659L43.4498 56.9998H47.0864L47.0651 52.7479Z" fill="#F3F3F3"/>
<path d="M19.574 47.2176C21.6796 47.2176 23.3865 45.5131 23.3865 43.4105C23.3865 41.3078 21.6796 39.6033 19.574 39.6033C17.4685 39.6033 15.7616 41.3078 15.7616 43.4105C15.7616 45.5131 17.4685 47.2176 19.574 47.2176Z" fill="#F3F3F3"/>
<path d="M38.095 47.3165C40.2006 47.3165 41.9075 45.612 41.9075 43.5093C41.9075 41.4067 40.2006 39.7021 38.095 39.7021C35.9895 39.7021 34.2826 41.4067 34.2826 43.5093C34.2826 45.612 35.9895 47.3165 38.095 47.3165Z" fill="#F3F3F3"/>
</svg>
