<svg width="25" height="25" viewBox="0 0 25 25" fill="none" xmlns="http://www.w3.org/2000/svg">
<path d="M22.612 19.8482C24.1608 17.7233 25 15.1663 25 12.4994C25 5.5912 19.4094 0 12.5 0C5.59139 0 0 5.59044 0 12.4994C0 15.1655 0.838852 17.7217 2.38667 19.8463C7.37362 12.9868 17.618 12.9806 22.612 19.8482ZM8.10547 7.37266C8.10547 4.94976 10.0769 2.97832 12.5 2.97832C14.9231 2.97832 16.8945 4.94976 16.8945 7.37266V8.83751C16.8945 11.2606 14.9231 13.2318 12.5 13.2318C10.0769 13.2318 8.10547 11.2606 8.10547 8.83751V7.37266Z" fill="#545759"/>
<path d="M12.5 11.767C14.1155 11.767 15.4297 10.4528 15.4297 8.83751V7.37266C15.4297 5.75733 14.1155 4.44317 12.5 4.44317C10.8845 4.44317 9.57031 5.75733 9.57031 7.37266V8.83751C9.57031 10.4528 10.8845 11.767 12.5 11.767Z" fill="#545759"/>
<path d="M3.35731 21.0218C8.30307 26.3247 16.6956 26.3287 21.6459 21.0182C17.2819 14.5342 7.74479 14.5637 3.35731 21.0218Z" fill="#545759"/>
</svg>
