<svg width="18" height="15" viewBox="0 0 18 15" fill="none" xmlns="http://www.w3.org/2000/svg">
<path d="M7.34698 13.875C7.32398 13.8125 7.31606 13.7594 7.32386 13.7164C7.33162 13.6737 7.30488 13.6383 7.24356 13.6111C7.18225 13.5838 7.15165 13.5622 7.15165 13.5468C7.15165 13.5312 7.1077 13.5194 7.01961 13.5117C6.93155 13.5038 6.8876 13.4999 6.8876 13.4999H3.30605C2.80096 13.4999 2.36852 13.3164 2.00878 12.949C1.64912 12.5818 1.46932 12.1405 1.46932 11.6249V3.37479C1.46932 2.85917 1.64908 2.41789 2.00878 2.05069C2.36852 1.68345 2.80096 1.49977 3.30605 1.49977H6.97948C7.07899 1.49977 7.15724 1.47457 7.21478 1.42368C7.27207 1.3729 7.31027 1.29668 7.32949 1.19513C7.34863 1.09358 7.36017 1.00189 7.36403 0.919837C7.36781 0.837869 7.36596 0.734269 7.35824 0.609284C7.35064 0.484341 7.34682 0.406231 7.34682 0.374831C7.34682 0.273283 7.31043 0.185568 7.23777 0.111193C7.16504 0.0371465 7.07899 0 6.97952 0H3.30605C2.39542 0 1.61668 0.330091 0.969934 0.990231C0.323352 1.65037 0 2.44522 0 3.37491V11.6249C0 12.5545 0.323352 13.3495 0.969934 14.0094C1.61668 14.6699 2.39542 15 3.30605 15H6.97964C7.07915 15 7.15744 14.9745 7.21494 14.9239C7.27223 14.873 7.31043 14.7969 7.32965 14.6952C7.34879 14.5938 7.36033 14.5017 7.36419 14.4199C7.36797 14.3379 7.36612 14.2345 7.3584 14.1095C7.35072 13.9844 7.34698 13.9063 7.34698 13.875Z" fill="#545759"/>
<path d="M17.7819 6.97262L11.537 0.597422C11.3917 0.449165 11.2195 0.37479 11.0205 0.37479C10.8215 0.37479 10.6492 0.449165 10.5038 0.597422C10.3583 0.745885 10.2857 0.921849 10.2857 1.12486V4.4999H5.14286C4.94375 4.4999 4.77162 4.57427 4.62619 4.72253C4.48076 4.87099 4.4081 5.04683 4.4081 5.24997V9.75007C4.4081 9.95317 4.48076 10.129 4.62619 10.2774C4.77178 10.4256 4.94387 10.5001 5.14286 10.5001H10.2857V13.8751C10.2857 14.0781 10.3584 14.2541 10.5038 14.4025C10.6492 14.5509 10.8215 14.6253 11.0205 14.6253C11.2195 14.6253 11.3917 14.5509 11.5371 14.4025L17.7819 8.02754C17.9273 7.87896 18 7.70336 18 7.50019C18 7.29709 17.9273 7.12109 17.7819 6.97262Z" fill="#545759"/>
</svg>
