<svg width="60" height="58" viewBox="0 0 60 58" fill="none" xmlns="http://www.w3.org/2000/svg">
<path d="M54.6094 0H33.5156C30.6077 0 28.125 2.51326 28.125 5.32422V22.3164C28.125 25.1274 30.6077 27.4141 33.5156 27.4141H54.6094C57.5173 27.4141 60 25.1274 60 22.3164V5.32422C60 2.51326 57.5173 0 54.6094 0ZM38.7891 18.918C38.7891 19.8572 38.0029 20.6172 37.0312 20.6172C36.0596 20.6172 35.2734 19.8572 35.2734 18.918V15.5195C35.2734 14.5803 36.0596 13.8203 37.0312 13.8203C38.0029 13.8203 38.7891 14.5803 38.7891 15.5195V18.918ZM45.8203 18.918C45.8203 19.8572 45.0341 20.6172 44.0625 20.6172C43.0909 20.6172 42.3047 19.8572 42.3047 18.918V12.1211C42.3047 11.1819 43.0909 10.4219 44.0625 10.4219C45.0341 10.4219 45.8203 11.1819 45.8203 12.1211V18.918ZM52.8516 18.918C52.8516 19.8572 52.0654 20.6172 51.0938 20.6172C50.1221 20.6172 49.3359 19.8572 49.3359 18.918V8.72266C49.3359 7.78344 50.1221 7.02344 51.0938 7.02344C52.0654 7.02344 52.8516 7.78344 52.8516 8.72266V18.918Z" fill="#F3F3F3"/>
<path d="M14.0625 10.4219C10.1846 10.4219 7.03125 13.4702 7.03125 17.2188C7.03125 20.9673 10.1846 24.0156 14.0625 24.0156C17.9404 24.0156 21.0938 20.9673 21.0938 17.2188C21.0938 13.4702 17.9404 10.4219 14.0625 10.4219Z" fill="#F3F3F3"/>
<path d="M20.2288 25.4525C18.4903 26.6728 16.3707 27.4141 14.0625 27.4141C11.7543 27.4141 9.63469 26.6728 7.89621 25.4525C3.83016 27.3888 0.838359 31.1232 0.151523 35.6113C0.0557813 36.2361 0.334102 36.8007 0.7875 37.176C2.35863 33.4504 6.13453 30.8125 10.5469 30.8125C14.8723 30.8125 18.5897 33.3468 20.2148 36.956C21.3967 34.3315 23.7006 32.3156 26.5268 31.3906C25.1345 28.8265 22.9277 26.7377 20.2288 25.4525Z" fill="#F3F3F3"/>
<path d="M10.5469 34.2109C6.66902 34.2109 3.51562 37.2592 3.51562 41.0078C3.51562 44.7564 6.66902 47.8047 10.5469 47.8047C14.4247 47.8047 17.5781 44.7564 17.5781 41.0078C17.5781 37.2592 14.4247 34.2109 10.5469 34.2109Z" fill="#F3F3F3"/>
<path d="M29.8828 34.2109C26.005 34.2109 22.8516 37.2592 22.8516 41.0078C22.8516 44.7564 26.005 47.8047 29.8828 47.8047C33.7607 47.8047 37.0312 44.7564 37.0312 41.0078C37.0312 37.2592 33.7607 34.2109 29.8828 34.2109Z" fill="#F3F3F3"/>
<path d="M49.3359 34.2109C45.4581 34.2109 42.3047 37.2592 42.3047 41.0078C42.3047 44.7564 45.4581 47.8047 49.3359 47.8047C53.2138 47.8047 56.4844 44.7564 56.4844 41.0078C56.4844 37.2592 53.2138 34.2109 49.3359 34.2109Z" fill="#F3F3F3"/>
<path d="M15.8203 54.6016C15.8203 52.5452 16.3241 50.6113 17.182 48.8675C15.3639 50.3046 13.0733 51.2031 10.5469 51.2031C7.44199 51.2031 4.67496 49.8754 2.74313 47.8047C1.05656 49.6125 0 51.9809 0 54.6016V56.3008C0 57.24 0.786211 58 1.75781 58H16.1441C15.9471 57.4659 15.8203 56.8994 15.8203 56.3008V54.6016Z" fill="#F3F3F3"/>
<path d="M37.8038 47.8047C35.8719 49.8754 32.9877 51.2031 29.8828 51.2031C26.7779 51.2031 24.0109 49.8754 22.0791 47.8047C20.3925 49.6125 19.3359 51.9809 19.3359 54.6016V56.3008C19.3359 57.24 20.1221 58 21.0938 58H38.7891C39.7607 58 40.5469 57.24 40.5469 56.3008V54.6016C40.5469 51.9809 39.4903 49.6125 37.8038 47.8047Z" fill="#F3F3F3"/>
<path d="M57.2569 47.8047C55.325 49.8754 52.4408 51.2031 49.3359 51.2031C46.8095 51.2031 44.5189 50.3046 42.7008 48.8675C43.5587 50.6113 44.0625 52.5452 44.0625 54.6016V56.3008C44.0625 56.8994 43.9357 57.4659 43.7387 58H58.2422C59.2138 58 60 57.24 60 56.3008V54.6016C60 51.9809 58.9434 49.6125 57.2569 47.8047Z" fill="#F3F3F3"/>
</svg>
