<svg width="30" height="30" viewBox="0 0 30 30" fill="none" xmlns="http://www.w3.org/2000/svg">
<path d="M12.2727 8.82679C12.2727 11.0685 16.7318 12.2418 21.1364 12.2418C25.5409 12.2418 30 11.0685 30 8.82679C29.9999 4.34322 12.2727 4.34322 12.2727 8.82679Z" fill="#F2F2F2"/>
<path d="M29.6711 12.1344C29.468 12.0117 29.2129 12.003 29.0019 12.1138C27.1655 13.0769 24.3723 13.6079 21.1364 13.6079C17.9004 13.6079 15.1072 13.0769 13.2708 12.1138C13.0598 12.0031 12.8047 12.0117 12.6016 12.1344C12.3972 12.2578 12.2727 12.4799 12.2727 12.7187V12.9248C12.2727 15.1666 16.7318 16.3398 21.1364 16.3398C25.5409 16.3398 30 15.1666 30 12.9248V12.7187C29.9999 12.4799 29.8754 12.2578 29.6711 12.1344Z" fill="#F2F2F2"/>
<path d="M4.0909 22.4869C4.0909 24.7287 8.54999 25.9019 12.9545 25.9019C17.3591 25.9019 21.8182 24.7287 21.8182 22.4869C21.8181 18.0033 4.0909 18.0033 4.0909 22.4869Z" fill="#F2F2F2"/>
<path d="M21.4893 25.7946C21.2855 25.6725 21.0311 25.6632 20.8201 25.774C18.9837 26.7371 16.1905 27.268 12.9545 27.268C9.71858 27.268 6.92539 26.7371 5.08902 25.774C4.87795 25.6632 4.62291 25.6726 4.41984 25.7946C4.21542 25.918 4.0909 26.1401 4.0909 26.3789V26.585C4.0909 28.8268 8.54999 30 12.9545 30C17.3591 30 21.8182 28.8267 21.8182 26.585V26.3789C21.8181 26.1401 21.6936 25.918 21.4893 25.7946Z" fill="#F2F2F2"/>
<path d="M8.86364 6.77775C9.78448 6.77775 10.7054 6.72572 11.6009 6.62236C11.7467 6.60568 11.8832 6.54233 11.9904 6.44159C13.0231 5.46776 14.7876 4.74943 17.0928 4.36456C17.3365 4.32384 17.5396 4.15445 17.6228 3.92102C17.6933 3.72427 17.7273 3.54152 17.7273 3.36274C17.7272 -1.1209 0 -1.1209 0 3.36267C0 5.60449 4.45908 6.77775 8.86364 6.77775Z" fill="#F2F2F2"/>
<path d="M8.86364 10.8758C9.42825 10.8758 9.97893 10.8564 10.5123 10.821C10.7274 10.8063 10.9225 10.6917 11.0396 10.5102C11.1561 10.3294 11.1808 10.1033 11.1062 9.90123C10.9737 9.54436 10.9092 9.19287 10.9125 8.79004C10.9125 8.60326 10.8359 8.42454 10.7007 8.29581C10.5662 8.16707 10.3764 8.08902 10.198 8.10769C9.75252 8.12904 9.30706 8.14368 8.86364 8.14368C5.62768 8.14368 2.83448 7.61275 0.998116 6.6496C0.787051 6.53889 0.532009 6.54758 0.328934 6.67024C0.124517 6.79374 0 7.01586 0 7.25467V7.46075C0 9.70257 4.45908 10.8758 8.86364 10.8758Z" fill="#F2F2F2"/>
<path d="M8.86364 14.9738C9.42825 14.9738 9.97893 14.9545 10.5123 14.9191C10.7274 14.9044 10.9225 14.7897 11.0396 14.6083C11.1561 14.4275 11.1808 14.2014 11.1062 13.9993C10.9737 13.6424 10.9092 13.2909 10.9092 12.8881C10.9092 12.7013 10.8326 12.5226 10.6974 12.3939C10.5629 12.2651 10.3764 12.1918 10.1947 12.2058C9.75054 12.2271 9.30642 12.2417 8.86364 12.2417C5.62768 12.2417 2.83448 11.7108 0.998116 10.7477C0.787051 10.637 0.532009 10.6457 0.328934 10.7683C0.124517 10.8918 0 11.1139 0 11.3527V11.5588C0 13.8006 4.45908 14.9738 8.86364 14.9738Z" fill="#F2F2F2"/>
<path d="M29.6711 20.3305C29.4666 20.2058 29.2129 20.1991 29.0019 20.3098C27.7188 20.9829 25.9137 21.4531 23.7824 21.6685C23.4228 21.7052 23.1665 22.1254 23.1818 22.487C23.1818 22.8332 23.1259 23.164 23.0113 23.4968C22.9354 23.7176 22.9774 23.9624 23.1225 24.1451C23.2531 24.3086 23.4495 24.4026 23.6559 24.4026C23.6799 24.4026 23.7045 24.4013 23.7292 24.3986C27.6556 23.9743 30 22.7491 30 21.1209V20.9148C29.9999 20.6761 29.8754 20.4539 29.6711 20.3305Z" fill="#F2F2F2"/>
<path d="M12.9545 17.7059L13.4067 17.7138C13.4107 17.7138 13.4146 17.7138 13.4187 17.7138C13.7369 17.7138 14.0133 17.4931 14.0838 17.1816C14.1551 16.8654 13.9953 16.5433 13.7009 16.4092L13.5551 16.3438C13.4579 16.3011 13.3601 16.2584 13.2695 16.211C13.0571 16.0996 12.8054 16.1096 12.601 16.233C12.3972 16.3564 12.2728 16.5779 12.2728 16.8166V17.0227C12.2727 17.4004 12.5777 17.7059 12.9545 17.7059Z" fill="#F2F2F2"/>
<path d="M29.6711 16.2325C29.468 16.1098 29.2129 16.1011 29.0019 16.2118C27.1655 17.175 24.3723 17.7059 21.1363 17.7059L20.6862 17.6972C20.4112 17.6739 20.0823 17.916 20.0124 18.2315C19.9418 18.547 20.1016 18.8684 20.3953 19.0018C21.1337 19.338 21.7369 19.7376 22.1877 20.1891C22.3162 20.3172 22.4894 20.3885 22.6698 20.3885C22.6838 20.3885 22.6984 20.3879 22.7131 20.3872C26.0742 20.1738 30 19.1646 30 17.0229V16.8168C29.9999 16.578 29.8754 16.3559 29.6711 16.2325Z" fill="#F2F2F2"/>
<path d="M5.70221 18.8598C5.78741 18.8598 5.87268 18.8438 5.95322 18.8118C7.15441 18.3362 8.61921 18.0087 10.3078 17.8387C10.6673 17.8027 10.9244 17.3478 10.909 16.9862C10.909 16.7995 10.8325 16.6207 10.6973 16.492C10.5628 16.3633 10.3763 16.2946 10.1945 16.3039C9.75041 16.3252 9.30629 16.3399 8.86352 16.3399C5.62755 16.3399 2.83436 15.809 0.997989 14.8458C0.786923 14.7351 0.531881 14.7438 0.328806 14.8664C0.124517 14.9899 0 15.2119 0 15.4507V15.6568C0 17.1662 2.09608 18.3615 5.60767 18.8531C5.63899 18.8578 5.67095 18.8598 5.70221 18.8598Z" fill="#F2F2F2"/>
</svg>
