<svg width="30" height="30" viewBox="0 0 25 25" fill="none" xmlns="http://www.w3.org/2000/svg">
<path d="M10.2273 7.35566C10.2273 9.22379 13.9432 10.2015 17.6136 10.2015C21.2841 10.2015 25 9.22379 25 7.35566C24.9999 3.61935 10.2273 3.61935 10.2273 7.35566Z" fill="#BF343F"/>
<path d="M24.7259 10.112C24.5567 10.0097 24.3441 10.0025 24.1682 10.0948C22.6379 10.8974 20.3103 11.3399 17.6136 11.3399C14.917 11.3399 12.5893 10.8974 11.059 10.0948C10.8831 10.0026 10.6706 10.0097 10.5014 10.112C10.331 10.2148 10.2273 10.3999 10.2273 10.5989V10.7707C10.2273 12.6388 13.9432 13.6165 17.6136 13.6165C21.2841 13.6165 25 12.6388 25 10.7707V10.5989C24.9999 10.3999 24.8962 10.2148 24.7259 10.112Z" fill="#BF343F"/>
<path d="M3.40909 18.7391C3.40909 20.6073 7.12499 21.5849 10.7955 21.5849C14.4659 21.5849 18.1818 20.6072 18.1818 18.7391C18.1818 15.0028 3.40909 15.0028 3.40909 18.7391Z" fill="#BF343F"/>
<path d="M17.9077 21.4955C17.7379 21.3938 17.5259 21.386 17.3501 21.4783C15.8198 22.2809 13.4921 22.7234 10.7955 22.7234C8.09882 22.7234 5.77116 22.2809 4.24085 21.4783C4.06496 21.386 3.85243 21.3938 3.6832 21.4955C3.51285 21.5983 3.40909 21.7834 3.40909 21.9824V22.1542C3.40909 24.0223 7.12499 25 10.7955 25C14.4659 25 18.1818 24.0223 18.1818 22.1542V21.9824C18.1818 21.7834 18.078 21.5983 17.9077 21.4955Z" fill="#BF343F"/>
<path d="M7.38637 5.64813C8.15373 5.64813 8.92115 5.60477 9.66742 5.51863C9.78892 5.50473 9.9027 5.45194 9.99203 5.36799C10.8526 4.55647 12.323 3.95786 14.244 3.63713C14.4471 3.6032 14.6163 3.46205 14.6856 3.26751C14.7445 3.10356 14.7727 2.95127 14.7727 2.80228C14.7727 -0.934084 0 -0.934085 0 2.80223C0 4.67041 3.7159 5.64813 7.38637 5.64813Z" fill="#BF343F"/>
<path d="M7.38637 9.06314C7.85688 9.06314 8.31577 9.047 8.76023 9.01754C8.93948 9.00529 9.10205 8.90973 9.19968 8.7585C9.29679 8.60786 9.3173 8.41946 9.25519 8.25103C9.14477 7.95364 9.09097 7.66072 9.09374 7.32503C9.09374 7.16939 9.02992 7.02045 8.91726 6.91317C8.80519 6.80589 8.64704 6.74085 8.49832 6.75641C8.1271 6.7742 7.75588 6.7864 7.38637 6.7864C4.68973 6.7864 2.36207 6.34396 0.831764 5.54133C0.655876 5.44907 0.443341 5.45632 0.274112 5.55854C0.103764 5.66145 0 5.84655 0 6.04556V6.21729C0 8.08547 3.7159 9.06314 7.38637 9.06314Z" fill="#BF343F"/>
<path d="M7.38637 12.4782C7.85688 12.4782 8.31577 12.4621 8.76023 12.4326C8.93948 12.4203 9.10205 12.3248 9.19968 12.1736C9.29679 12.0229 9.3173 11.8345 9.25519 11.6661C9.14477 11.3687 9.09097 11.0758 9.09097 10.7401C9.09097 10.5844 9.02715 10.4355 8.91449 10.3282C8.80242 10.221 8.64704 10.1598 8.49555 10.1715C8.12545 10.1893 7.75535 10.2015 7.38637 10.2015C4.68973 10.2015 2.36207 9.75902 0.831764 8.95639C0.655876 8.86413 0.443341 8.87138 0.274112 8.9736C0.103764 9.07651 0 9.26161 0 9.46056V9.6323C0 11.5005 3.7159 12.4782 7.38637 12.4782Z" fill="#BF343F"/>
<path d="M24.7259 16.9421C24.5555 16.8382 24.3441 16.8326 24.1682 16.9249C23.099 17.4857 21.5947 17.8776 19.8187 18.0571C19.519 18.0877 19.3054 18.4379 19.3182 18.7391C19.3182 19.0276 19.2716 19.3033 19.1761 19.5807C19.1128 19.7646 19.1478 19.9687 19.2688 20.121C19.3776 20.2572 19.5413 20.3355 19.7133 20.3355C19.7332 20.3355 19.7537 20.3344 19.7743 20.3322C23.0463 19.9786 25 18.9576 25 17.6008V17.429C24.9999 17.23 24.8962 17.0449 24.7259 16.9421Z" fill="#BF343F"/>
<path d="M10.7955 14.7549L11.1722 14.7615C11.1756 14.7615 11.1789 14.7615 11.1822 14.7615C11.4474 14.7615 11.6777 14.5776 11.7365 14.318C11.7959 14.0545 11.6627 13.7861 11.4175 13.6743L11.296 13.6198C11.2149 13.5842 11.1334 13.5486 11.0579 13.5092C10.8809 13.4163 10.6712 13.4247 10.5008 13.5275C10.331 13.6303 10.2273 13.8149 10.2273 14.0138V14.1856C10.2273 14.5003 10.4814 14.7549 10.7955 14.7549Z" fill="#BF343F"/>
<path d="M24.7259 13.5271C24.5567 13.4248 24.3441 13.4176 24.1682 13.5099C22.6379 14.3125 20.3103 14.7549 17.6136 14.7549L17.2385 14.7477C17.0094 14.7282 16.7353 14.93 16.677 15.1929C16.6182 15.4558 16.7513 15.7237 16.996 15.8349C17.6114 16.115 18.1141 16.448 18.4898 16.8243C18.5968 16.931 18.7411 16.9904 18.8915 16.9904C18.9032 16.9904 18.9154 16.9899 18.9276 16.9893C21.7285 16.8115 25 15.9705 25 14.1857V14.014C24.9999 13.815 24.8962 13.6299 24.7259 13.5271Z" fill="#BF343F"/>
<path d="M4.75184 15.7165C4.82284 15.7165 4.8939 15.7032 4.96102 15.6765C5.96201 15.2802 7.18268 15.0073 8.58983 14.8656C8.88946 14.8356 9.10364 14.4565 9.09086 14.1552C9.09086 13.9996 9.02705 13.8506 8.91439 13.7433C8.80231 13.6361 8.64693 13.5788 8.49544 13.5866C8.12534 13.6044 7.75524 13.6166 7.38626 13.6166C4.68962 13.6166 2.36196 13.1741 0.831657 12.3715C0.65577 12.2792 0.443234 12.2865 0.274005 12.3887C0.103764 12.4916 0 12.6766 0 12.8756V13.0474C0 14.3052 1.74673 15.3012 4.67306 15.7109C4.69916 15.7148 4.72579 15.7165 4.75184 15.7165Z" fill="#BF343F"/>
</svg>
