<svg width="18" height="18" viewBox="0 0 18 18" fill="none" xmlns="http://www.w3.org/2000/svg">
<path d="M16.9155 5.73975L15.2483 2.89424C15.0666 2.56574 14.6745 2.394 14.2634 2.54398L12.3796 3.29098C12.0217 3.03673 11.6455 2.82073 11.2564 2.64748L10.9699 0.675C10.9213 0.29025 10.5831 0 10.1834 0H6.83969C6.43998 0 6.10179 0.29025 6.05392 0.66825L5.76667 2.64674C5.38976 2.81549 5.01965 3.0285 4.64577 3.29098L2.75666 2.54176C2.39342 2.40377 1.96027 2.55902 1.77938 2.88527L0.109057 5.73599C-0.0915632 6.07198 -0.00874335 6.50774 0.302837 6.75074L1.89943 7.98223C1.87435 8.21999 1.8622 8.42773 1.8622 8.62499C1.8622 8.82225 1.87435 9.02999 1.89868 9.26775L0.301306 10.5C-0.00343579 10.7378 -0.0870037 11.1593 0.107525 11.5103L1.77479 14.3565C1.95642 14.6843 2.34929 14.856 2.7604 14.706L4.64424 13.959C5.00216 14.2132 5.37832 14.4292 5.76742 14.6025L6.05392 16.5742C6.10179 16.9597 6.43995 17.25 6.83969 17.25H9.4584C9.6005 17.25 9.7297 17.172 9.79506 17.0482C9.86043 16.9245 9.85052 16.7752 9.76999 16.6605C9.18864 15.8385 8.88087 14.8747 8.88087 13.875C8.88087 13.4085 8.95002 12.9412 9.0868 12.486C9.12175 12.369 9.09745 12.243 9.02069 12.147C8.94392 12.0517 8.82616 12.0007 8.70227 12.0045C8.66123 12.0067 8.62094 12.012 8.51761 12.0247C6.62767 12.0247 5.09036 10.5075 5.09036 8.64225C5.09036 6.777 6.62767 5.25899 8.51761 5.25899C10.4075 5.25899 11.9449 6.77623 11.938 8.70374C11.9327 8.7435 11.9274 8.78323 11.9251 8.82373C11.919 8.94596 11.973 9.06296 12.0695 9.13799C12.1667 9.21375 12.2952 9.23625 12.413 9.20324C13.1523 8.98573 13.8811 8.93398 14.7064 9.08174C14.8075 9.09974 14.9184 9.05474 15.0035 8.99248C15.0879 8.93021 15.1441 8.81473 15.1555 8.71123C15.1571 8.69773 15.1608 8.63698 15.1608 8.62348C15.1608 8.39021 15.1441 8.17049 15.1244 7.98071L16.721 6.75C17.0258 6.51301 17.1093 6.09149 16.9155 5.73975Z" fill="#545759"/>
<path d="M17.62 10.5C17.4102 10.5 17.24 10.668 17.24 10.875V11.79C16.667 10.7948 15.5226 9.75002 13.8204 9.75002C11.5155 9.75002 9.64079 11.6003 9.64079 13.875C9.64079 16.1498 11.5155 18 13.8204 18C14.0301 18 14.2004 17.832 14.2004 17.625C14.2004 17.418 14.0301 17.25 13.8204 17.25C11.935 17.25 10.4007 15.7357 10.4007 13.875C10.4007 12.0142 11.935 10.5 13.8204 10.5C15.6123 10.5 16.5979 11.961 16.8403 12.75H15.3403C15.1305 12.75 14.9603 12.918 14.9603 13.125C14.9603 13.332 15.1305 13.5 15.3403 13.5H17.62C17.8298 13.5 18 13.332 18 13.125V10.875C18 10.668 17.8305 10.5 17.62 10.5Z" fill="#545759"/>
</svg>
