<svg width="57" height="57" viewBox="0 0 57 57" fill="none" xmlns="http://www.w3.org/2000/svg">
<path d="M12.1075 57C11.7834 55.753 12.0116 54.414 12.7731 53.3287L20.889 41.7634L16.3104 35.413C16.0883 35.1049 15.7478 34.9508 15.4074 34.9508C15.067 34.9508 14.7265 35.1049 14.5043 35.413L0.212218 55.2357C-0.318706 55.972 0.207542 57 1.11531 57H12.1075Z" fill="#F3F3F3"/>
<path d="M37.8214 23.6406V17.8125H51.7374C52.3438 17.8125 52.9027 17.4836 53.1972 16.9536C53.4916 16.4236 53.4756 15.7753 53.1553 15.2604L50.2407 10.5762L53.1553 5.89193C53.4757 5.37704 53.4918 4.72888 53.1972 4.19874C52.9026 3.6686 52.344 3.33984 51.7374 3.33984H37.8214V1.66992C37.8214 0.74768 37.0737 0 36.1515 0C35.2293 0 34.4816 0.74768 34.4816 1.66992V23.6406C35.436 22.5927 36.845 22.5717 37.8214 23.6406Z" fill="#F3F3F3"/>
<path d="M45.3056 38.8729L41.3191 42.5868C40.9985 42.8855 40.5897 43.0349 40.1808 43.0349C39.7719 43.0349 39.3631 42.8855 39.0425 42.5868L36.1511 39.8931L33.2602 42.5867C32.6188 43.1843 31.6248 43.1843 30.9834 42.5867L26.9975 38.8729L15.507 55.2472C14.9894 55.985 15.5171 57 16.4184 57H55.8848C56.7861 57 57.3138 55.985 56.7961 55.2472L45.3056 38.8729Z" fill="#F3F3F3"/>
<path d="M32.1219 39.0825L35.0126 36.3889C35.6539 35.7914 36.6479 35.7913 37.2893 36.3888L40.1808 39.0826L43.3975 36.1539L37.0628 27.1269C36.8412 26.811 36.4964 26.6531 36.1515 26.6531C35.8067 26.6531 35.4618 26.811 35.2402 27.1269L28.9055 36.1539L32.1219 39.0825Z" fill="#F3F3F3"/>
</svg>
