<svg width="54" height="57" viewBox="0 0 54 57" fill="none" xmlns="http://www.w3.org/2000/svg">
<path d="M50.6354 27.0264V9.6021C50.6354 9.34092 50.5633 9.1019 50.456 8.88192C50.5207 8.7039 50.6354 8.54682 50.6354 8.34966C50.6354 7.60443 50.1377 6.94882 49.4148 6.74331L25.8634 0.063624C25.5612 -0.021208 25.2425 -0.021208 24.9402 0.063624L1.38886 6.74331C0.665943 6.94882 0.168224 7.60443 0.168224 8.34966C0.168224 9.09489 0.665943 9.7505 1.38886 9.95601L10.2617 12.4725V14.4488C10.2617 16.3486 11.3246 18.0952 12.9691 18.8975C20.5095 22.5766 30.2909 22.5749 37.8347 18.8992C39.4791 18.0969 40.5421 16.3502 40.5421 14.4488V12.4725L47.271 10.5641V27.0264C45.3172 27.7181 43.9066 29.5543 43.9066 31.7285V35.0684C43.9066 35.9914 44.659 36.7383 45.5888 36.7383H52.3178C53.2476 36.7383 54 35.9914 54 35.0684V31.7285C53.9999 29.5543 52.5893 27.7182 50.6354 27.0264Z" fill="#F3F3F3"/>
<path d="M39.1482 22.1193C34.9196 24.1822 30.1078 25.2715 25.2336 25.2715C20.3594 25.2715 15.5459 24.1805 11.3156 22.1176C10.9025 21.916 10.5603 21.6172 10.1931 21.3509C10.5525 27.3615 13.8102 32.4617 18.4141 35.0747C18.4141 35.0747 20.7757 36.1823 21.5135 36.3904L21.5164 36.3849C22.7114 36.7232 23.9416 36.9611 25.2335 36.9611C26.4163 36.9611 28.1011 36.7267 29.7847 36.1096C30.5602 35.8355 32.0474 35.0782 32.0474 35.0782C36.6542 32.4661 39.9142 27.3643 40.2739 21.3515C39.9057 21.6183 39.5626 21.9172 39.1482 22.1193Z" fill="#F3F3F3"/>
<path d="M25.2336 40.3008C23.8775 40.3008 22.5724 40.0931 21.3007 39.7884L25.2336 45.6445L29.1444 39.7939C27.8793 40.0951 26.582 40.3008 25.2336 40.3008Z" fill="#F3F3F3"/>
<path d="M34.9171 37.3056C34.8873 37.3256 34.8539 37.3392 34.8242 37.3591L33.4093 39.4658C33.4093 39.5435 26.9592 49.12 26.9158 49.1847V57H48.7849C49.7148 57 50.4672 56.2531 50.4672 55.3301C50.4672 46.2108 43.7058 38.7251 34.9171 37.3056ZM38.6915 50.3203H35.327C34.3972 50.3203 33.6448 49.5734 33.6448 48.6504C33.6448 47.7274 34.3972 46.9805 35.327 46.9805H38.6915C39.6213 46.9805 40.3737 47.7274 40.3737 48.6504C40.3737 49.5734 39.6213 50.3203 38.6915 50.3203Z" fill="#F3F3F3"/>
<path d="M15.6124 37.3397C15.5851 37.3215 15.5545 37.309 15.5272 37.2906C6.7478 38.7197 0 46.2164 0 55.3301C0 56.2531 0.75241 57 1.68224 57H23.5514V49.1847C15.9276 37.8132 17.4833 40.1347 15.6124 37.3397Z" fill="#F3F3F3"/>
</svg>
