<svg width="52" height="55" viewBox="0 0 52 55" fill="none" xmlns="http://www.w3.org/2000/svg">
<path d="M13.7439 9.47343C16.174 9.47343 18.1439 7.46524 18.1439 4.98803C18.1439 2.51081 16.174 0.502627 13.7439 0.502627C11.3139 0.502627 9.34396 2.51081 9.34396 4.98803C9.34396 7.46524 11.3139 9.47343 13.7439 9.47343Z" fill="#F3F3F3"/>
<path d="M27.3591 29.6007C27.3245 29.5036 23.858 19.8356 22.3312 15.3069C21.3463 12.3849 19.6947 10.9033 17.4223 10.9033C17.305 10.9033 17.1916 10.9033 17.08 10.9033C17.6467 11.4642 18.079 12.1653 18.3202 12.9522C19.4253 13.3421 20.2212 14.4129 20.2212 15.6704V22.216C21.7356 26.5257 23.3475 31.021 23.3713 31.087C23.7739 32.2096 24.9928 32.787 26.0942 32.3765C27.1954 31.9662 27.7618 30.7234 27.3591 29.6007Z" fill="#F3F3F3"/>
<path d="M10.0665 10.9033C7.79441 10.9033 6.14275 12.3849 5.15769 15.3068C3.63101 19.8352 0.164562 29.5036 0.129682 29.6007C-0.272959 30.7233 0.293331 31.9662 1.39451 32.3765C2.49484 32.7869 3.71467 32.2103 4.11742 31.087C4.14113 31.0208 5.75296 26.5256 7.26742 22.216V15.6704C7.26742 14.413 8.06343 13.3422 9.1684 12.9522C9.40961 12.1653 9.84196 11.4642 10.4087 10.9033C10.2973 10.9033 10.1838 10.9033 10.0665 10.9033Z" fill="#F3F3F3"/>
<path d="M22.1677 35.2714C21.2761 30.5797 20.6553 27.3197 20.2214 25.0399V25.5466C20.2214 27.1326 18.9557 28.4228 17.4 28.4228H10.0891C8.5333 28.4228 7.26774 27.1325 7.26774 25.5466V25.0391C6.83369 27.3195 6.21282 30.5799 5.32145 35.2715C5.18003 36.016 5.74284 36.7038 6.47932 36.7038C6.93654 36.7038 7.48523 36.7038 8.09936 36.7038V52.4029C8.09936 53.8373 9.23995 55 10.647 55C12.0541 55 13.1947 53.8373 13.1947 52.4029V36.7037C13.5609 36.7037 13.9284 36.7037 14.2946 36.7037V52.4028C14.2946 53.8372 15.4352 54.9999 16.8423 54.9999C18.2494 54.9999 19.39 53.8372 19.39 52.4028V36.7037C20.0042 36.7037 20.5528 36.7037 21.0099 36.7037C21.75 36.7037 22.3089 36.015 22.1677 35.2714Z" fill="#F3F3F3"/>
<path d="M17.3998 14.4071H16.9552C16.9552 13.8209 16.8025 13.2707 16.5365 12.7943C15.9839 11.8038 14.9397 11.134 13.7444 11.134C12.549 11.134 11.5048 11.8038 10.9521 12.7943C10.6862 13.2707 10.5334 13.8209 10.5334 14.4071H10.0888C9.40434 14.4071 8.84953 14.9727 8.84953 15.6704V25.5466C8.84953 26.2443 9.40434 26.8099 10.0888 26.8099H17.3997C18.0841 26.8099 18.639 26.2443 18.639 25.5466V15.6705C18.6391 14.9727 18.0843 14.4071 17.3998 14.4071ZM13.3645 12.7943H14.1242C14.8393 12.9695 15.373 13.6252 15.373 14.4071H12.1157C12.1157 13.6251 12.6494 12.9694 13.3645 12.7943ZM15.4671 23.7276H12.0217C11.4393 23.7276 10.967 23.2462 10.967 22.6524C10.967 22.0585 11.4393 21.5772 12.0217 21.5772H15.4671C16.0496 21.5772 16.5218 22.0585 16.5218 22.6524C16.5218 23.2462 16.0496 23.7276 15.4671 23.7276Z" fill="#F3F3F3"/>
<path d="M41.0988 9.0533C43.5511 9.0533 45.5392 7.02665 45.5392 4.52665C45.5392 2.02665 43.5511 0 41.0988 0C38.6464 0 36.6583 2.02665 36.6583 4.52665C36.6583 7.02665 38.6464 9.0533 41.0988 9.0533Z" fill="#F3F3F3"/>
<path d="M52 15.6397C51.9861 12.8037 49.6759 10.4966 46.8505 10.4966H44.0609C44.8121 11.1004 45.3832 11.9271 45.675 12.879C45.6849 12.8826 45.6945 12.887 45.7044 12.8906C46.8901 13.3017 47.7595 14.4762 47.7148 15.8259V31.6972C47.7148 32.9035 48.6741 33.8814 49.8574 33.8814C51.0407 33.8814 52 32.9034 52 31.6972V15.6506C52 15.647 52 15.6433 52 15.6397Z" fill="#F3F3F3"/>
<path d="M44.7548 28.3496H37.4437V28.3495C36.6529 28.3495 35.926 28.0156 35.4133 27.4794C35.4133 27.4881 35.4133 28.0207 35.4133 52.3787C35.4133 53.8263 36.5531 54.9998 37.9731 54.9998C39.3932 54.9998 40.5443 53.8263 40.5443 52.3787V31.4285H41.6543V52.3789C41.6543 53.8265 42.8054 55 44.2255 55C45.6455 55 46.7853 53.8265 46.7853 52.3789C46.7853 28.598 46.7853 27.4796 46.7853 27.4796C46.2723 28.0158 45.5456 28.3496 44.7548 28.3496Z" fill="#F3F3F3"/>
<path d="M35.3479 10.4966C32.5223 10.4966 30.2123 12.8037 30.1984 15.6397C30.1984 15.6433 30.1984 15.647 30.1984 15.6506V31.6972C30.1984 32.9034 31.1577 33.8814 32.341 33.8814C33.5242 33.8814 34.4836 32.9034 34.4836 31.6972V16.0843C34.3067 14.6223 35.2272 13.295 36.5253 12.8725C36.8179 11.9233 37.388 11.099 38.1374 10.4965L35.3479 10.4966Z" fill="#F3F3F3"/>
<path d="M44.7547 14.3338H44.31C44.31 13.7476 44.1573 13.1974 43.8914 12.721C43.3387 11.7306 42.2947 11.0607 41.0992 11.0607C39.9037 11.0606 38.8596 11.7306 38.3069 12.721C38.0411 13.1974 37.8883 13.7476 37.8883 14.3338H37.4436C36.7592 14.3338 36.2044 14.8994 36.2044 15.5971V25.4734C36.2044 26.1711 36.7592 26.7367 37.4436 26.7367H44.7546C45.439 26.7367 45.9938 26.1711 45.9938 25.4734V15.5971C45.9939 14.8994 45.4391 14.3338 44.7547 14.3338ZM40.7194 12.721H41.479C42.1941 12.8961 42.7279 13.5518 42.7279 14.3338H39.4705C39.4705 13.5518 40.0041 12.8961 40.7194 12.721ZM42.8219 23.6543H39.3763C38.7938 23.6543 38.3216 23.1729 38.3216 22.5791C38.3216 21.9853 38.7938 21.5039 39.3763 21.5039H42.8219C43.4044 21.5039 43.8766 21.9853 43.8766 22.5791C43.8766 23.1729 43.4045 23.6543 42.8219 23.6543Z" fill="#F3F3F3"/>
</svg>
